<?xml version="1.0" encoding="iso-8859-1"?>
<!-- Generator: Adobe Illustrator 19.0.0, SVG Export Plug-In . SVG Version: 6.00 Build 0)  -->
<svg version="1.1" id="Capa_1" xmlns="http://www.w3.org/2000/svg" xmlns:xlink="http://www.w3.org/1999/xlink" x="0px" y="0px"
	 viewBox="0 0 512.002 512.002" style="enable-background:new 0 0 512.002 512.002;" xml:space="preserve">
<g>
	<path style="fill:#73BCFF;" d="M60.989,512.001V300.353l-1.89-3.398C36.847,257.02,5.523,221.786,0.722,166.7
		C-7.219,76.541,51.215,0.001,134.113,0.001c37.764,0,92.974,20.435,113.174,40.62c11.265,11.265,11.675,29.473,0.923,41.426
		c-11.725,13.058-31.565,12.776-43.975,0.82c-11.177-10.796-52.134-22.866-70.123-22.866c-48.72,0-74.124,45.586-74.124,90.249
		c0,40.518,20.116,77.021,73.993,130.21c12.583,12.422,44.722,19.541,62.007,19.541c33.091,0,60,26.909,60,60v152L60.989,512.001
		L60.989,512.001z"/>
	<path style="fill:#73BCFF;" d="M180.989,300.001c-24.814,0-45-20.186-45-45s20.186-45,45-45s45,20.186,45,45
		S205.803,300.001,180.989,300.001z"/>
</g>
<g>
	<path style="fill:#FF7816;" d="M449.158,512.001V300.353l1.89-3.398C473.3,257.02,506.499,221.786,511.3,166.7
		C519.241,76.541,458.931,0.001,376.033,0.001c-37.764,0-92.974,20.435-113.174,40.62c-11.265,11.265-11.675,29.473-0.923,41.426
		c11.725,13.058,31.565,12.776,43.975,0.82c11.177-10.796,52.134-22.866,70.122-22.866c48.721,0,76,45.586,76,90.249
		c0,40.518-21.991,77.021-75.868,130.21c-12.583,12.422-44.722,19.541-62.007,19.541c-33.091,0-60,26.909-60,60v152L449.158,512.001
		L449.158,512.001z"/>
	<path style="fill:#FF7816;" d="M330.989,300.001c-24.814,0-45-20.186-45-45s20.186-45,45-45s45,20.186,45,45
		S355.803,300.001,330.989,300.001z"/>
</g>
<g>
</g>
<g>
</g>
<g>
</g>
<g>
</g>
<g>
</g>
<g>
</g>
<g>
</g>
<g>
</g>
<g>
</g>
<g>
</g>
<g>
</g>
<g>
</g>
<g>
</g>
<g>
</g>
<g>
</g>
</svg>
