<svg xmlns="http://www.w3.org/2000/svg" xmlns:xlink="http://www.w3.org/1999/xlink" width="91.014" height="102.945" viewBox="0 0 91.014 102.945">
  <defs>
    <linearGradient id="linear-gradient" x1="0.5" y1="0.007" x2="0.5" y2="1.007" gradientUnits="objectBoundingBox">
      <stop offset="0" stop-color="#dafcb3"/>
      <stop offset="1" stop-color="#49d649"/>
    </linearGradient>
  </defs>
  <g id="icon_chef" transform="translate(-122.5 -105)">
    <g id="Group_5" data-name="Group 5" transform="translate(122.5 105)">
      <g id="Group_4" data-name="Group 4" transform="translate(0 0)">
        <path id="Path_18" data-name="Path 18" d="M134.635,204.911a3.041,3.041,0,0,0,3.034,3.034h60.676a3.041,3.041,0,0,0,3.034-3.034V189.776H134.635Zm57.642-87.81a20.664,20.664,0,0,0-4.84.545,21.249,21.249,0,0,0-38.86,0,20.872,20.872,0,0,0-4.84-.545,21.2,21.2,0,0,0-9.1,40.36v26.247h66.744V157.461a21.2,21.2,0,0,0-9.1-40.36Zm-33.372,57.54a3.034,3.034,0,1,1-6.068,0v-12.1a3.034,3.034,0,1,1,6.068,0Zm12.135,0a3.034,3.034,0,1,1-6.068,0v-12.1a3.034,3.034,0,0,1,6.068,0Zm12.135,0a3.034,3.034,0,1,1-6.068,0v-12.1a3.034,3.034,0,1,1,6.068,0Z" transform="translate(-122.5 -105)" fill="url(#linear-gradient)"/>
      </g>
    </g>
  </g>
</svg>
