<svg xmlns="http://www.w3.org/2000/svg" xmlns:xlink="http://www.w3.org/1999/xlink" width="103.576" height="103.576" viewBox="0 0 103.576 103.576">
  <defs>
    <linearGradient id="linear-gradient" x1="0.5" x2="0.5" y2="1" gradientUnits="objectBoundingBox">
      <stop offset="0" stop-color="#52d7fa"/>
      <stop offset="1" stop-color="#4e8eb5"/>
    </linearGradient>
    <linearGradient id="linear-gradient-3" x1="0.5" x2="0.5" y2="1" gradientUnits="objectBoundingBox">
      <stop offset="0" stop-color="#ff7816"/>
      <stop offset="1" stop-color="#fd8878"/>
    </linearGradient>
  </defs>
  <g id="icon_couple" transform="translate(0 -0.001)">
    <g id="Group_7" data-name="Group 7" transform="translate(0 0.001)">
      <path id="Path_28" data-name="Path 28" d="M12.338,103.577V60.761l-.382-.687C7.454,51.995,1.117,44.867.146,33.724-1.46,15.485,10.361,0,27.131,0c7.64,0,18.808,4.134,22.895,8.217a6.092,6.092,0,0,1,.187,8.38,6.162,6.162,0,0,1-8.9.166c-2.261-2.184-10.546-4.626-14.186-4.626-9.856,0-14.995,9.222-14.995,18.257,0,8.2,4.069,15.581,14.968,26.341,2.545,2.513,9.047,3.953,12.544,3.953A12.15,12.15,0,0,1,51.786,72.828v30.749Z" transform="translate(0 -0.001)" fill="url(#linear-gradient)"/>
      <path id="Path_29" data-name="Path 29" d="M145.092,228.208a9.1,9.1,0,1,1,9.1-9.1A9.113,9.113,0,0,1,145.092,228.208Z" transform="translate(-108.479 -167.519)" fill="url(#linear-gradient)"/>
    </g>
    <g id="Group_8" data-name="Group 8" transform="translate(51.41 0.001)">
      <path id="Path_30" data-name="Path 30" d="M293.586,103.577V60.761l.382-.687c4.5-8.079,11.218-15.206,12.189-26.35C307.764,15.485,295.563,0,278.793,0c-7.639,0-18.808,4.134-22.895,8.217a6.092,6.092,0,0,0-.187,8.38,6.162,6.162,0,0,0,8.9.166c2.261-2.184,10.547-4.626,14.185-4.626,9.856,0,15.374,9.222,15.374,18.257,0,8.2-4.449,15.581-15.348,26.341-2.546,2.513-9.047,3.953-12.544,3.953a12.15,12.15,0,0,0-12.138,12.138v30.749Z" transform="translate(-254.134 -0.001)" fill="url(#linear-gradient-3)"/>
      <path id="Path_31" data-name="Path 31" d="M295.092,228.208a9.1,9.1,0,1,1,9.1-9.1A9.113,9.113,0,0,1,295.092,228.208Z" transform="translate(-279.545 -167.519)" fill="url(#linear-gradient-3)"/>
    </g>
  </g>
</svg>
