<svg xmlns="http://www.w3.org/2000/svg" xmlns:xlink="http://www.w3.org/1999/xlink" width="75.97" height="103.445" viewBox="0 0 75.97 103.445">
  <defs>
    <linearGradient id="linear-gradient" x1="0.571" y1="0.054" x2="1.048" y2="1.308" gradientUnits="objectBoundingBox">
      <stop offset="0" stop-color="#1eb3f5"/>
      <stop offset="1" stop-color="#4e8eb5"/>
    </linearGradient>
  </defs>
  <g id="icon_restaurant" transform="translate(-67.992)">
    <path id="Path_19" data-name="Path 19" d="M143.962,38.068c0,34.056-34.121,65.377-37.985,65.377S67.992,72.124,67.992,38.068a37.985,37.985,0,1,1,75.97,0Z" fill="url(#linear-gradient)"/>
    <circle id="Ellipse_4" data-name="Ellipse 4" cx="30.18" cy="30.18" r="30.18" transform="translate(75.797 7.888)" fill="#f8f7f7"/>
    <path id="Path_21" data-name="Path 21" d="M243.669,39.04a30.369,30.369,0,0,0-3.122.161,30.181,30.181,0,0,1,0,60.038,30.181,30.181,0,1,0,3.122-60.2Z" transform="translate(-137.692 -31.152)" fill="#efefef"/>
    <path id="Path_22" data-name="Path 22" d="M250.015,112.215a1.515,1.515,0,0,0-1.515,1.515v3.231a1.515,1.515,0,0,0,3.031,0V113.73A1.515,1.515,0,0,0,250.015,112.215Z" transform="translate(-144.038 -89.543)" fill="#afbbc6"/>
    <path id="Path_23" data-name="Path 23" d="M205.134,217.768H180.273a1.916,1.916,0,0,1-1.784-1.216l-1.812-4.612H208.73l-1.812,4.612a1.917,1.917,0,0,1-1.784,1.216Z" transform="translate(-86.726 -169.12)" fill="#7b727b"/>
    <path id="Path_24" data-name="Path 24" d="M290.219,211.94l-1.812,4.612a1.916,1.916,0,0,1-1.784,1.216h6.244a1.916,1.916,0,0,0,1.784-1.216l1.812-4.612Z" transform="translate(-174.459 -169.12)" fill="#686169"/>
    <path id="Path_25" data-name="Path 25" d="M215.482,151.108H188.008v-1.665a13.737,13.737,0,0,1,27.474,0Z" transform="translate(-95.768 -108.288)" fill="#cfdbe4"/>
    <g id="Group_6" data-name="Group 6" transform="translate(87.496 27.418)">
      <path id="Path_26" data-name="Path 26" d="M243.669,135.707a13.765,13.765,0,0,0-3.122.361,13.739,13.739,0,0,1,10.615,13.376v1.665h6.244v-1.665A13.737,13.737,0,0,0,243.669,135.707Z" transform="translate(-225.188 -135.707)" fill="#afbbc6"/>
      <path id="Path_27" data-name="Path 27" d="M199.974,204.44H166.041a1.515,1.515,0,1,0,0,3.031h33.932a1.515,1.515,0,1,0,0-3.031Z" transform="translate(-164.526 -190.553)" fill="#afbbc6"/>
    </g>
  </g>
</svg>
