<svg xmlns="http://www.w3.org/2000/svg" xmlns:xlink="http://www.w3.org/1999/xlink" width="107.599" height="103.445" viewBox="0 0 107.599 103.445">
  <defs>
    <linearGradient id="linear-gradient" x1="0.634" y1="-0.084" x2="0.324" y2="0.227" gradientUnits="objectBoundingBox">
      <stop offset="0" stop-color="#fd8878" stop-opacity="0"/>
      <stop offset="1" stop-color="#fd8878"/>
    </linearGradient>
    <linearGradient id="linear-gradient-2" x1="0.316" y1="0.784" x2="0.949" y2="0.15" gradientUnits="objectBoundingBox">
      <stop offset="0" stop-color="#62e1fb"/>
      <stop offset="1" stop-color="#00a2f3"/>
    </linearGradient>
    <linearGradient id="linear-gradient-3" x1="0.761" y1="0.176" x2="-0.265" y2="1.201" gradientUnits="objectBoundingBox">
      <stop offset="0" stop-color="#00a2f3" stop-opacity="0"/>
      <stop offset="1" stop-color="#0075cd"/>
    </linearGradient>
    <linearGradient id="linear-gradient-4" x1="0.758" y1="0.176" x2="-0.267" y2="1.201" xlink:href="#linear-gradient-3"/>
    <linearGradient id="linear-gradient-5" x1="0.756" y1="0.176" x2="-0.27" y2="1.201" xlink:href="#linear-gradient-3"/>
  </defs>
  <g id="icon_chat" transform="translate(0 -9.884)">
    <path id="Path_13" data-name="Path 13" d="M208.959,164.117A35.543,35.543,0,0,1,244.2,207.31a64.411,64.411,0,0,0-1.6,13.869V230.2a2.5,2.5,0,0,1-2.5,2.5h-9.026a64.411,64.411,0,0,0-13.869,1.6,35.52,35.52,0,1,1-8.234-70.2Z" transform="translate(-137.43 -121.817)" fill="url(#linear-gradient)"/>
    <path id="Path_14" data-name="Path 14" d="M43.942,9.889A43.3,43.3,0,0,0,1.015,62.51a78.476,78.476,0,0,1,1.954,16.9v11a3.05,3.05,0,0,0,3.05,3.05h11a78.48,78.48,0,0,1,16.9,1.954A43.273,43.273,0,1,0,43.942,9.889Z" transform="translate(0)" fill="url(#linear-gradient-2)"/>
    <path id="Path_15" data-name="Path 15" d="M88.675,196.792a6.7,6.7,0,1,0-9.464,9.464l14.457,14.457a6.7,6.7,0,1,0,9.464-9.464Z" transform="translate(-60.894 -145.959)" fill="url(#linear-gradient-3)"/>
    <circle id="Ellipse_1" data-name="Ellipse 1" cx="6.702" cy="6.702" r="6.702" transform="translate(16.202 48.718)" fill="#fff"/>
    <path id="Path_16" data-name="Path 16" d="M178.865,196.792a6.7,6.7,0,1,0-9.464,9.464l14.457,14.457a6.7,6.7,0,1,0,9.464-9.464Z" transform="translate(-132.13 -145.959)" fill="url(#linear-gradient-4)"/>
    <circle id="Ellipse_2" data-name="Ellipse 2" cx="6.702" cy="6.702" r="6.702" transform="translate(35.156 48.718)" fill="#fff"/>
    <path id="Path_17" data-name="Path 17" d="M269.054,196.792a6.7,6.7,0,1,0-9.465,9.464l14.457,14.457a6.7,6.7,0,1,0,9.464-9.464Z" transform="translate(-203.366 -145.959)" fill="url(#linear-gradient-5)"/>
    <circle id="Ellipse_3" data-name="Ellipse 3" cx="6.702" cy="6.702" r="6.702" transform="translate(54.11 48.718)" fill="#fff"/>
  </g>
</svg>
