<?xml version="1.0" encoding="utf-8"?>
<!-- Generator: Adobe Illustrator 25.2.0, SVG Export Plug-In . SVG Version: 6.00 Build 0)  -->
<svg version="1.1" id="Layer_1" xmlns="http://www.w3.org/2000/svg" xmlns:xlink="http://www.w3.org/1999/xlink" x="0px" y="0px"
	 viewBox="0 0 293.5 94.9" style="enable-background:new 0 0 293.5 94.9;" xml:space="preserve">
<style type="text/css">
	.st0{fill:#F2F2F2;}
	.st1{fill:#FF8878;}
	.st2{fill:#4E8EB5;}
	.st3{fill:url(#SVGID_1_);}
	.st4{enable-background:new    ;}
	.st5{fill:#333333;}
	.st6{display:none;fill:#333333;}
</style>
<g id="Layer_3">
	<g>
		<path class="st0" d="M284.5,11.9c0,0-7.5,0.2-17.4,18.8c-4,7.7-5.2,16.2-4.9,24.8c0,0.9-0.2,1.8-0.5,2.7l-9,19
			c-0.1,0.3-0.2,0.6-0.3,0.9c-0.6,2.7,0.9,5.5,3.8,6.2c2.6,0.6,5.2-1.4,5.9-3.9L284.5,11.9z"/>
		<path class="st1" d="M261.9,58.1c-0.1,0.2-0.1,0.2-0.1,0.3l-9,19c-0.1,0.3-0.2,0.6-0.3,0.9c-0.6,2.7,0.9,5.5,3.8,6.2
			c2.6,0.6,5.2-1.4,5.9-3.9l6.5-19.8l-6.8-2.5L261.9,58.1L261.9,58.1z"/>
	</g>
	<g>
		<path class="st0" d="M27.4,10.4c-0.7,0.3-0.9,1.2-0.7,1.7l4.9,13.4c0.3,0.7-0.1,1.5-0.8,1.8c-0.7,0.3-1.5-0.1-1.8-0.8L24,13.1
			c-0.3-0.7-0.9-1.2-1.7-0.9c-0.8,0.1-1.2,1.1-1,1.8l4.9,13.4c0.3,0.7-0.1,1.5-0.8,1.8l0,0c-0.7,0.3-1.5-0.1-1.8-0.8L18.7,15
			c-0.3-0.7-0.9-1.2-1.7-0.9c-0.8,0.1-1.2,1.1-1,1.8L21,29.4c0.3,0.7-0.1,1.5-0.8,1.8l0,0c-0.7,0.3-1.5-0.1-1.8-0.8L13.4,17
			c-0.3-0.7-0.9-1.2-1.7-0.9c-0.8,0.1-1.2,1.1-1,1.8l5.4,14.8c0.9,2.5,2.7,4.3,5,5.5c3.6,1.7,6.4,4.8,7.4,8.6l8.6,32.8
			c0.1,0.3,0.3,0.7,0.4,1c1.5,3.1,5.4,4.3,8.4,2.6c2.7-1.7,3.6-5.1,2.3-8L34,44.7c-1.7-3.7-1.5-7.8,0.2-11.4c1-2.2,1.2-4.9,0.3-7.4
			l-5.4-14.7C28.9,10.5,28.1,10.1,27.4,10.4z"/>
		<path class="st2" d="M34.4,45.3l-5.6,2l8.6,32.3c0.1,0.3,0.3,0.7,0.4,1c1.5,3.1,5.4,4.3,8.4,2.6c2.7-1.7,3.6-5.1,2.3-8L34.4,45.3z
			"/>
	</g>
</g>
<linearGradient id="SVGID_1_" gradientUnits="userSpaceOnUse" x1="89.8528" y1="554.7383" x2="115.1896" y2="529.4016" gradientTransform="matrix(1 0 0 1 0 -488)">
	<stop  offset="0" style="stop-color:#F98380"/>
	<stop  offset="1" style="stop-color:#FF0600"/>
</linearGradient>
<path class="st3" d="M112,42.3L112,42.3c-5.2,0-8.1,3.8-9.4,6.3c-1.4-2.5-4.2-6.3-9.4-6.3h-0.1c-5.6,0-10.2,4.8-10.5,10.8
	c-0.4,7.4,5.5,12.3,14.3,19.8c1.5,1.3,3.1,2.7,4.8,4.2l0.8,0.7l0.8-0.7c1.7-1.5,3.3-2.9,4.8-4.2c8.8-7.5,14.7-12.5,14.3-19.8
	C122.2,47.1,117.6,42.3,112,42.3z"/>
<g class="st4">
	<path class="st5" d="M99.4,11.9c3.7-0.5,7.5-0.8,11-0.8c9.1,0,12.7,3,12.7,6.3c0,2.2-1.6,3.9-4,3.9c-1.3,0-2.1-1.2-2.1-2.3
		c0-2.4-3.6-3.5-5.8-3.5c-4.5,0-8.8,0.2-13.2,0.8c-1,1-2.3,1.9-3.5,3.4c-4,4.5-10.5,15-16.2,26.1l1.8-0.1c5.9-0.7,8.5-1.1,9.9-1.1
		s3,0.6,3,2.3c0,2.1-2.8,2.2-4.5,2.2c-1.6,0-6.5,0.4-10,0.8l-2.4,0.4c-5,10.5-8.8,21-8.8,27.3c0,1.7,0.6,2.4,0.6,3.9
		c0,1.4-1.1,3.1-3.1,3.1c-1.3,0-3-0.5-3-4.6c0-7.5,3.1-17.8,7.5-27.9c-1.2,0.5-2.1,0.8-2.7,0.8c-1,0-1.8-1-1.8-2.1
		c0-1.3,1-2.2,2.8-2.8c1.2-0.4,2.5-0.8,4-1.1C77,35.2,83.8,24.2,89,17.8C80.3,20,73,23.5,67.7,28.7c-1.9,2.1-3.1,5-3.1,7.4
		c0,1.8-1.7,3-3.5,3c-1,0-2.4-0.7-2.4-3.5c0-9.9,17-19,34.9-22.7c1.5-1.3,2.8-2.1,3.7-2.1S99.1,11.2,99.4,11.9z"/>
	<path class="st6" d="M110.4,51.7c0,1,0,3.7,1.9,3.7c5,0,9.7-3.4,10.9-3.4c1.2,0,2.2,0.8,2.2,2.1c0,1.2-1.6,2.7-5.6,4.5
		c-4.5,2.1-10,2.1-10.5,2.1c-2.5,7.2-8.1,16.8-16.6,16.8c-3.4,0-6.8-2.5-6.8-7.7c0-11.2,9.4-22,17.9-22
		C108.4,47.7,110.4,49.9,110.4,51.7z M91.1,69.7c0,2.2,1.5,3.5,3,3.5c4.7,0,10.9-10.9,10.9-14.5c0-0.4-1.8-1-1.8-2.5
		c0-1.2,0.4-2.2,0.4-2.7c0-0.2-0.1-0.4-0.4-0.4C98,53.1,91.1,61.8,91.1,69.7z"/>
	<path class="st5" d="M138.7,51.7c0,1,0,3.7,1.9,3.7c5,0,9.7-3.4,10.9-3.4c1.2,0,2.2,0.8,2.2,2.1c0,1.2-1.6,2.7-5.6,4.5
		c-4.5,2.1-10,2.1-10.5,2.1c-2.5,7.2-8.1,16.8-16.6,16.8c-3.4,0-6.8-2.5-6.8-7.7c0-11.2,9.4-22,17.9-22
		C136.6,47.7,138.7,49.9,138.7,51.7z M119.4,69.7c0,2.2,1.5,3.5,3,3.5c4.7,0,10.9-10.9,10.9-14.5c0-0.4-1.8-1-1.8-2.5
		c0-1.2,0.4-2.2,0.4-2.7c0-0.2-0.1-0.4-0.4-0.4C126.3,53.1,119.4,61.8,119.4,69.7z"/>
	<path class="st5" d="M175.7,25.6c5.1-10.8,10.8-15.5,15-15.5c3.4,0,5.3,2.4,5.3,5.8s-1.1,9.2-7.9,20.1
		C180,48.9,171.4,56.4,170,59.3c-1.1,2.3-1.6,5.3-1.6,8.6c0,2.9,0.1,9.3,3.5,10.1c1.1,0.1,1.9,0.4,1.9,1c0,1-1.9,2.3-4.3,2.3
		c-5.4,0-6.3-7-6.3-11.8v-2.7c-5.4,6.8-12.8,11-16.9,11c-2.3,0-6-1.8-6-6.6c0-8.7,12-23.1,19.8-23.1c4.5,0,6.3,2.2,6.9,2.2
		C168.3,44.7,170.6,36.3,175.7,25.6z M145.6,69.9c0,1.9,1.5,2.8,2.8,2.8c4.1,0,16.3-12.9,16.2-15.9c-0.5,0-1.7-0.2-1.8-1.7
		c-0.1-1.3-1.5-2.1-2.7-2.1C154.4,53.4,145.6,65.3,145.6,69.9z M179.7,27.6c-5.2,10.3-8,23.3-8,23.3s7.1-7.4,12.9-17.8
		c5.3-9.4,6.6-12.8,6.6-16.3c0-1,0-2.2-1.3-2.3C188.7,14.6,184.9,17.4,179.7,27.6z"/>
	<path class="st5" d="M200.4,57.6c1.5-1.8,2.4-3,3.7-3c1.1,0,1.7,0.7,1.7,1.7c0,1.1-0.5,1.8-1.8,3.5c-5.8,6.9-16.7,17.2-22.7,17.2
		c-2.1,0-5-2.2-5-6.2c0-5.3,6.2-17.2,7.1-19c1.3-2.3,2.4-4.2,4-4.2c1.1,0,2.8,0.8,2.8,2.2c0,1.3-1.2,2.5-2.3,4.3
		c-2.7,4.6-6.3,13-6.3,15.7c0,1.1,0.6,2.4,2.2,2.4C187.4,72.2,196.1,63.4,200.4,57.6z M202.9,29.3c0,2.9-3.3,4.6-4.7,4.6
		s-2.1-2.5-2.1-4.2s1.7-3.7,4.1-3.7C201.4,25.9,202.9,26.9,202.9,29.3z"/>
	<path class="st5" d="M227.9,57.6c1.5-1.8,2.5-3,3.7-3c1.2,0,1.7,0.7,1.7,1.7c0,1.1-0.5,1.8-1.8,3.5c-5.8,6.9-15.7,17.6-29.1,17.6
		c-3.7,0-7.2-3.9-7.2-7.7c0-1.2-0.4-1.6-0.4-2.8c0-1.1,1-2.4,2.1-2.9c5-11.5,13-16.1,19.2-16.1c2.3,0,5,1.9,5,4.2
		c0,6.2-10.5,13.2-18,14.9c-2.2,0.5-2.3,1.2-2.3,2.4c0,1.2,0.7,3.6,3.6,3.6C214.9,73.1,223.5,63.4,227.9,57.6z M202.3,63.3
		c4.2-0.1,13.8-6.9,13.8-9.4c0-1-0.5-1.2-1.4-1.2C210.8,52.6,204.1,60.4,202.3,63.3z"/>
	<path class="st5" d="M228.4,59.2c0-6.3,9.2-12.1,14.5-12.1c2.1,0,4.8,1.8,4.8,4.3c0,2.5-1.6,6.8-4,6.8c-1.3,0-2.5-0.7-2.5-2.1
		c0-2.1,1.8-2.4,1.8-2.9c0-0.7-0.8-1.6-1.8-1.6c-1.7,0-7.4,3.3-7.4,6.8c0,3.4,8.7,2.9,8.7,10.6c0,4-3.5,8.3-10.5,8.3
		c-4.2,0-7.5-3-7.5-5.9c0-1.7,1.2-3,2.7-3c1.1,0,2.2,0.6,2.2,1.8c0,2.1,1.1,3.3,3.4,3.3c2.5,0,4.2-2.1,4.2-4.5
		C236.9,64.4,228.4,64.6,228.4,59.2z"/>
</g>
</svg>
